<svg xmlns="http://www.w3.org/2000/svg" width="21" height="31" viewBox="0 0 21 31">
    <g fill="#F38258" fill-rule="evenodd">
        <path d="M9.397 22.438c-4.377 1.735-3.277 1.313-6.29 2.38C.337 25.833.64 26.947 1.33 29.354c.857 2.99 5.784 1 5.916.967 3.688-.913 5.594-.735 4.676-3.934-.332-1.16-1.138-4.347-2.525-3.949M13.066 2.23C12.131 1.4 10.732-.599 9.385.77l-1.82 1.853c-1.595 1.621 2.947 5.722 3.92 6.767 1.206 1.36 4.207 5.78 6.281 3.67l2.503-2.545c1.376-1.4-1.111-2.99-2.03-3.776L13.066 2.23"/>
    </g>
</svg>
